<svg width="357" height="78" viewBox="0 0 357 78" fill="none" xmlns="http://www.w3.org/2000/svg">
<path d="M90.08 22.08V26.68H99.08V32.64H90.08V37.72H100.28V44H82.24V15.8H100.28V22.08H90.08ZM113.914 37.64H125.634V44H105.114V38.04L116.714 22.12H105.114V15.8H125.634V21.76L113.914 37.64ZM148.925 39.4H138.925L137.405 44H129.165L139.445 15.8H148.485L158.725 44H150.445L148.925 39.4ZM146.965 33.4L143.925 24.28L140.925 33.4H146.965ZM171.041 37.64H182.761V44H162.241V38.04L173.841 22.12H162.241V15.8H182.761V21.76L171.041 37.64Z" fill="#28B463"/>
<path d="M223.188 44H215.348L204.908 28.24V44H197.068V15.8H204.908L215.348 31.76V15.8H223.188V44ZM246.694 39.4H236.694L235.174 44H226.934L237.214 15.8H246.254L256.494 44H248.214L246.694 39.4ZM244.734 33.4L241.694 24.28L238.694 33.4H244.734ZM270.889 44.28C267.609 44.28 264.916 43.5067 262.809 41.96C260.703 40.3867 259.569 38.1467 259.409 35.24H267.769C267.849 36.2267 268.143 36.9467 268.649 37.4C269.156 37.8533 269.809 38.08 270.609 38.08C271.329 38.08 271.916 37.9067 272.369 37.56C272.849 37.1867 273.089 36.68 273.089 36.04C273.089 35.2133 272.703 34.5733 271.929 34.12C271.156 33.6667 269.903 33.16 268.169 32.6C266.329 31.9867 264.836 31.4 263.689 30.84C262.569 30.2533 261.583 29.4133 260.729 28.32C259.903 27.2 259.489 25.7467 259.489 23.96C259.489 22.1467 259.943 20.6 260.849 19.32C261.756 18.0133 263.009 17.0267 264.609 16.36C266.209 15.6933 268.023 15.36 270.049 15.36C273.329 15.36 275.943 16.1333 277.889 17.68C279.863 19.2 280.916 21.3467 281.049 24.12H272.529C272.503 23.2667 272.236 22.6267 271.729 22.2C271.249 21.7733 270.623 21.56 269.849 21.56C269.263 21.56 268.783 21.7333 268.409 22.08C268.036 22.4267 267.849 22.92 267.849 23.56C267.849 24.0933 268.049 24.56 268.449 24.96C268.876 25.3333 269.396 25.6667 270.009 25.96C270.623 26.2267 271.529 26.5733 272.729 27C274.516 27.6133 275.983 28.2267 277.129 28.84C278.303 29.4267 279.303 30.2667 280.129 31.36C280.983 32.4267 281.409 33.7867 281.409 35.44C281.409 37.12 280.983 38.6267 280.129 39.96C279.303 41.2933 278.089 42.3467 276.489 43.12C274.916 43.8933 273.049 44.28 270.889 44.28ZM294.094 22.08V26.68H303.094V32.64H294.094V37.72H304.294V44H286.254V15.8H304.294V22.08H294.094ZM317.208 22.08V26.68H326.208V32.64H317.208V37.72H327.408V44H309.368V15.8H327.408V22.08H317.208ZM346.762 44L341.162 33.6H340.322V44H332.482V15.8H344.842C347.109 15.8 349.029 16.2 350.602 17C352.176 17.7733 353.362 18.8533 354.162 20.24C354.962 21.6 355.362 23.1333 355.362 24.84C355.362 26.76 354.829 28.4533 353.762 29.92C352.722 31.36 351.189 32.3867 349.162 33L355.522 44H346.762ZM340.322 28.24H344.202C345.269 28.24 346.069 27.9867 346.602 27.48C347.136 26.9733 347.402 26.24 347.402 25.28C347.402 24.3733 347.122 23.6667 346.562 23.16C346.029 22.6267 345.242 22.36 344.202 22.36H340.322V28.24Z" fill="white"/>
<path d="M89.72 70L86.52 64.44H84.78V70H82.5V56.1H87.3C88.3667 56.1 89.2667 56.2867 90 56.66C90.7467 57.0333 91.3 57.5333 91.66 58.16C92.0333 58.7867 92.22 59.4867 92.22 60.26C92.22 61.1667 91.9533 61.9933 91.42 62.74C90.9 63.4733 90.0933 63.9733 89 64.24L92.44 70H89.72ZM84.78 62.62H87.3C88.1533 62.62 88.7933 62.4067 89.22 61.98C89.66 61.5533 89.88 60.98 89.88 60.26C89.88 59.54 89.6667 58.98 89.24 58.58C88.8133 58.1667 88.1667 57.96 87.3 57.96H84.78V62.62ZM98.4167 57.94V62.02H103.217V63.88H98.4167V68.14H103.817V70H96.1367V56.08H103.817V57.94H98.4167ZM116.005 67.16H110.185L109.185 70H106.805L111.785 56.08H114.425L119.405 70H117.005L116.005 67.16ZM115.365 65.3L113.105 58.84L110.825 65.3H115.365ZM121.81 63.02C121.81 61.66 122.124 60.44 122.75 59.36C123.39 58.28 124.25 57.44 125.33 56.84C126.424 56.2267 127.617 55.92 128.91 55.92C130.39 55.92 131.704 56.2867 132.85 57.02C134.01 57.74 134.85 58.7667 135.37 60.1H132.63C132.27 59.3667 131.77 58.82 131.13 58.46C130.49 58.1 129.75 57.92 128.91 57.92C127.99 57.92 127.17 58.1267 126.45 58.54C125.73 58.9533 125.164 59.5467 124.75 60.32C124.35 61.0933 124.15 61.9933 124.15 63.02C124.15 64.0467 124.35 64.9467 124.75 65.72C125.164 66.4933 125.73 67.0933 126.45 67.52C127.17 67.9333 127.99 68.14 128.91 68.14C129.75 68.14 130.49 67.96 131.13 67.6C131.77 67.24 132.27 66.6933 132.63 65.96H135.37C134.85 67.2933 134.01 68.32 132.85 69.04C131.704 69.76 130.39 70.12 128.91 70.12C127.604 70.12 126.41 69.82 125.33 69.22C124.25 68.6067 123.39 67.76 122.75 66.68C122.124 65.6 121.81 64.38 121.81 63.02ZM148.019 56.1V57.96H144.319V70H142.039V57.96H138.319V56.1H148.019ZM153.608 56.1V70H151.328V56.1H153.608ZM169.022 70H166.742L159.882 59.62V70H157.602V56.08H159.882L166.742 66.44V56.08H169.022V70ZM183.076 60.1C182.716 59.4067 182.216 58.8867 181.576 58.54C180.936 58.18 180.196 58 179.356 58C178.436 58 177.616 58.2067 176.896 58.62C176.176 59.0333 175.609 59.62 175.196 60.38C174.796 61.14 174.596 62.02 174.596 63.02C174.596 64.02 174.796 64.9067 175.196 65.68C175.609 66.44 176.176 67.0267 176.896 67.44C177.616 67.8533 178.436 68.06 179.356 68.06C180.596 68.06 181.602 67.7133 182.376 67.02C183.149 66.3267 183.622 65.3867 183.796 64.2H178.576V62.38H186.236V64.16C186.089 65.24 185.702 66.2333 185.076 67.14C184.462 68.0467 183.656 68.7733 182.656 69.32C181.669 69.8533 180.569 70.12 179.356 70.12C178.049 70.12 176.856 69.82 175.776 69.22C174.696 68.6067 173.836 67.76 173.196 66.68C172.569 65.6 172.256 64.38 172.256 63.02C172.256 61.66 172.569 60.44 173.196 59.36C173.836 58.28 174.696 57.44 175.776 56.84C176.869 56.2267 178.062 55.92 179.356 55.92C180.836 55.92 182.149 56.2867 183.296 57.02C184.456 57.74 185.296 58.7667 185.816 60.1H183.076ZM204.66 56.1V57.96H200.96V70H198.68V57.96H194.96V56.1H204.66ZM214.309 70.14C213.015 70.14 211.822 69.84 210.729 69.24C209.649 68.6267 208.789 67.78 208.149 66.7C207.522 65.6067 207.209 64.38 207.209 63.02C207.209 61.66 207.522 60.44 208.149 59.36C208.789 58.28 209.649 57.44 210.729 56.84C211.822 56.2267 213.015 55.92 214.309 55.92C215.615 55.92 216.809 56.2267 217.889 56.84C218.982 57.44 219.842 58.28 220.469 59.36C221.095 60.44 221.409 61.66 221.409 63.02C221.409 64.38 221.095 65.6067 220.469 66.7C219.842 67.78 218.982 68.6267 217.889 69.24C216.809 69.84 215.615 70.14 214.309 70.14ZM214.309 68.16C215.229 68.16 216.049 67.9533 216.769 67.54C217.489 67.1133 218.049 66.5133 218.449 65.74C218.862 64.9533 219.069 64.0467 219.069 63.02C219.069 61.9933 218.862 61.0933 218.449 60.32C218.049 59.5467 217.489 58.9533 216.769 58.54C216.049 58.1267 215.229 57.92 214.309 57.92C213.389 57.92 212.569 58.1267 211.849 58.54C211.129 58.9533 210.562 59.5467 210.149 60.32C209.749 61.0933 209.549 61.9933 209.549 63.02C209.549 64.0467 209.749 64.9533 210.149 65.74C210.562 66.5133 211.129 67.1133 211.849 67.54C212.569 67.9533 213.389 68.16 214.309 68.16ZM240.568 60.24C240.568 60.9467 240.401 61.6133 240.068 62.24C239.734 62.8667 239.201 63.38 238.468 63.78C237.734 64.1667 236.794 64.36 235.648 64.36H233.128V70H230.848V56.1H235.648C236.714 56.1 237.614 56.2867 238.348 56.66C239.094 57.02 239.648 57.5133 240.008 58.14C240.381 58.7667 240.568 59.4667 240.568 60.24ZM235.648 62.5C236.514 62.5 237.161 62.3067 237.588 61.92C238.014 61.52 238.228 60.96 238.228 60.24C238.228 58.72 237.368 57.96 235.648 57.96H233.128V62.5H235.648ZM246.022 57.94V62.02H250.822V63.88H246.022V68.14H251.422V70H243.742V56.08H251.422V57.94H246.022ZM262.45 70L259.25 64.44H257.51V70H255.23V56.1H260.03C261.097 56.1 261.997 56.2867 262.73 56.66C263.477 57.0333 264.03 57.5333 264.39 58.16C264.764 58.7867 264.95 59.4867 264.95 60.26C264.95 61.1667 264.684 61.9933 264.15 62.74C263.63 63.4733 262.824 63.9733 261.73 64.24L265.17 70H262.45ZM257.51 62.62H260.03C260.884 62.62 261.524 62.4067 261.95 61.98C262.39 61.5533 262.61 60.98 262.61 60.26C262.61 59.54 262.397 58.98 261.97 58.58C261.544 58.1667 260.897 57.96 260.03 57.96H257.51V62.62ZM277.047 56.1V57.96H271.147V62.06H275.747V63.92H271.147V70H268.867V56.1H277.047ZM282.44 57.94V62.02H287.24V63.88H282.44V68.14H287.84V70H280.16V56.08H287.84V57.94H282.44ZM290.888 63.02C290.888 61.66 291.202 60.44 291.828 59.36C292.468 58.28 293.328 57.44 294.408 56.84C295.502 56.2267 296.695 55.92 297.988 55.92C299.468 55.92 300.782 56.2867 301.928 57.02C303.088 57.74 303.928 58.7667 304.448 60.1H301.708C301.348 59.3667 300.848 58.82 300.208 58.46C299.568 58.1 298.828 57.92 297.988 57.92C297.068 57.92 296.248 58.1267 295.528 58.54C294.808 58.9533 294.242 59.5467 293.828 60.32C293.428 61.0933 293.228 61.9933 293.228 63.02C293.228 64.0467 293.428 64.9467 293.828 65.72C294.242 66.4933 294.808 67.0933 295.528 67.52C296.248 67.9333 297.068 68.14 297.988 68.14C298.828 68.14 299.568 67.96 300.208 67.6C300.848 67.24 301.348 66.6933 301.708 65.96H304.448C303.928 67.2933 303.088 68.32 301.928 69.04C300.782 69.76 299.468 70.12 297.988 70.12C296.682 70.12 295.488 69.82 294.408 69.22C293.328 68.6067 292.468 67.76 291.828 66.68C291.202 65.6 290.888 64.38 290.888 63.02ZM317.097 56.1V57.96H313.397V70H311.117V57.96H307.397V56.1H317.097ZM322.686 56.1V70H320.406V56.1H322.686ZM333.02 70.14C331.726 70.14 330.533 69.84 329.44 69.24C328.36 68.6267 327.5 67.78 326.86 66.7C326.233 65.6067 325.92 64.38 325.92 63.02C325.92 61.66 326.233 60.44 326.86 59.36C327.5 58.28 328.36 57.44 329.44 56.84C330.533 56.2267 331.726 55.92 333.02 55.92C334.326 55.92 335.52 56.2267 336.6 56.84C337.693 57.44 338.553 58.28 339.18 59.36C339.806 60.44 340.12 61.66 340.12 63.02C340.12 64.38 339.806 65.6067 339.18 66.7C338.553 67.78 337.693 68.6267 336.6 69.24C335.52 69.84 334.326 70.14 333.02 70.14ZM333.02 68.16C333.94 68.16 334.76 67.9533 335.48 67.54C336.2 67.1133 336.76 66.5133 337.16 65.74C337.573 64.9533 337.78 64.0467 337.78 63.02C337.78 61.9933 337.573 61.0933 337.16 60.32C336.76 59.5467 336.2 58.9533 335.48 58.54C334.76 58.1267 333.94 57.92 333.02 57.92C332.1 57.92 331.28 58.1267 330.56 58.54C329.84 58.9533 329.273 59.5467 328.86 60.32C328.46 61.0933 328.26 61.9933 328.26 63.02C328.26 64.0467 328.46 64.9533 328.86 65.74C329.273 66.5133 329.84 67.1133 330.56 67.54C331.28 67.9533 332.1 68.16 333.02 68.16ZM354.783 70H352.503L345.643 59.62V70H343.363V56.08H345.643L352.503 66.44V56.08H354.783V70Z" fill="#28B463"/>
<path d="M1.81187 69C1.29592 69 0.864358 68.8304 0.517178 68.4912C0.169998 68.152 -0.00238603 67.7327 2.49411e-05 67.2333C0.00243591 66.7339 0.176026 66.3135 0.520795 65.9719C0.865563 65.6304 1.29472 65.4608 1.80825 65.4631H72.1917C72.7053 65.4631 73.1344 65.6327 73.4792 65.9719C73.824 66.3111 73.9976 66.7304 74 67.2298C74.0024 67.7292 73.8288 68.1496 73.4792 68.4912C73.1296 68.8327 72.7005 69.0023 72.1917 69H1.81187ZM10.2961 61.9333C8.6301 61.9333 7.24017 61.388 6.1263 60.2974C5.01243 59.2068 4.45429 57.8488 4.45188 56.2234V21.7063C4.45188 20.081 5.01002 18.723 6.1263 17.6324C7.24258 16.5418 8.6313 15.9977 10.2925 16H63.7075C65.3711 16 66.7598 16.5441 67.8737 17.6324C68.9876 18.7207 69.5457 20.0787 69.5481 21.7063V56.227C69.5481 57.8523 68.99 59.2091 67.8737 60.2974C66.7574 61.3857 65.3675 61.931 63.7039 61.9333H10.2961ZM10.2961 58.4H63.7075C64.2621 58.4 64.772 58.1727 65.2373 57.718C65.7026 57.2634 65.9341 56.7652 65.9316 56.2234V21.7063C65.9316 21.1646 65.7002 20.6664 65.2373 20.2117C64.772 19.7571 64.2608 19.5298 63.7039 19.5298H10.2961C9.73914 19.5298 9.22802 19.7571 8.7627 20.2117C8.29979 20.664 8.06834 21.1622 8.06834 21.7063V56.227C8.06834 56.7688 8.29979 57.2658 8.7627 57.718C9.22561 58.1703 9.73553 58.3976 10.2925 58.4" fill="#28B463"/>
</svg>
